<svg xmlns="http://www.w3.org/2000/svg" version="1.1" xmlns:xlink="http://www.w3.org/1999/xlink" xmlns:svgjs="http://svgjs.com/svgjs" width="512" height="512" x="0" y="0" viewBox="0 0 512 512" style="enable-background:new 0 0 512 512" xml:space="preserve" class=""><g>
<g xmlns="http://www.w3.org/2000/svg">
	<g>
		<path d="M437,0c-41.353,0-75,33.647-75,75c0,36.216,25.809,66.513,60,73.482V226c0,8.276-6.724,15-15,15H271v-92.518    c34.191-6.969,60-37.266,60-73.482c0-41.353-33.647-75-75-75c-41.353,0-75,33.647-75,75c0,36.216,25.809,66.513,60,73.482V241H90    v-92.518c34.191-6.969,60-37.266,60-73.482c0-41.353-33.647-75-75-75C33.647,0,0,33.647,0,75c0,36.216,25.809,66.513,60,73.482    v215.036C25.809,370.487,0,400.784,0,437c0,41.353,33.647,75,75,75s75-33.647,75-75c0-36.216-25.809-66.513-60-73.482V271h151    v92.518c-34.191,6.969-60,37.266-60,73.482c0,41.353,33.647,75,75,75c41.353,0,75-33.647,75-75c0-36.216-25.809-66.513-60-73.482    V271h136c24.814,0,45-20.186,45-45v-77.518c34.191-6.969,60-37.266,60-73.482C512,33.647,478.353,0,437,0z" fill="#97d05f" data-original="#000000" style="" class=""></path>
	</g>
</g>
<g xmlns="http://www.w3.org/2000/svg">
</g>
<g xmlns="http://www.w3.org/2000/svg">
</g>
<g xmlns="http://www.w3.org/2000/svg">
</g>
<g xmlns="http://www.w3.org/2000/svg">
</g>
<g xmlns="http://www.w3.org/2000/svg">
</g>
<g xmlns="http://www.w3.org/2000/svg">
</g>
<g xmlns="http://www.w3.org/2000/svg">
</g>
<g xmlns="http://www.w3.org/2000/svg">
</g>
<g xmlns="http://www.w3.org/2000/svg">
</g>
<g xmlns="http://www.w3.org/2000/svg">
</g>
<g xmlns="http://www.w3.org/2000/svg">
</g>
<g xmlns="http://www.w3.org/2000/svg">
</g>
<g xmlns="http://www.w3.org/2000/svg">
</g>
<g xmlns="http://www.w3.org/2000/svg">
</g>
<g xmlns="http://www.w3.org/2000/svg">
</g>
</g></svg>