<svg xmlns="http://www.w3.org/2000/svg" version="1.1" xmlns:xlink="http://www.w3.org/1999/xlink" xmlns:svgjs="http://svgjs.com/svgjs" width="512" height="512" x="0" y="0" viewBox="0 0 512.004 512.004" style="enable-background:new 0 0 512 512" xml:space="preserve" class=""><g><g xmlns="http://www.w3.org/2000/svg"><path d="m492.257 76.772-90 30c-7.859 2.62-12.107 11.115-9.487 18.974 2.625 7.874 11.129 12.102 18.974 9.487l90-30c7.859-2.62 12.107-11.115 9.487-18.974-2.621-7.859-11.113-12.106-18.974-9.487z" fill="#90c65b" data-original="#000000" style="" class=""></path><path d="m492.257 166.772-90 30c-7.859 2.62-12.107 11.115-9.487 18.974 2.625 7.874 11.129 12.102 18.974 9.487l90-30c7.859-2.62 12.107-11.115 9.487-18.974-2.621-7.859-11.113-12.106-18.974-9.487z" fill="#90c65b" data-original="#000000" style="" class=""></path><path d="m492.257 256.772-90 30c-7.859 2.62-12.107 11.115-9.487 18.974 2.625 7.874 11.129 12.102 18.974 9.487l90-30c7.859-2.62 12.107-11.115 9.487-18.974-2.621-7.859-11.113-12.106-18.974-9.487z" fill="#90c65b" data-original="#000000" style="" class=""></path><path d="m492.257 346.772-90 30c-7.859 2.62-12.107 11.115-9.487 18.974 2.625 7.874 11.129 12.102 18.974 9.487l90-30c7.859-2.62 12.107-11.115 9.487-18.974-2.621-7.859-11.113-12.108-18.974-9.487z" fill="#90c65b" data-original="#000000" style="" class=""></path><path d="m210 466.002h107c6.405 0 12.104-4.067 14.186-10.125 1.258-3.662 30.814-90.927 30.814-199.875s-29.556-196.213-30.814-199.874c-2.082-6.058-7.781-10.125-14.186-10.125h-107c-115.794 0-210 94.206-210 210s94.206 209.999 210 209.999zm122-210c0 82.992-18.501 154.358-26.044 180h-28.745c8.987-32.268 24.789-100.333 24.789-180s-15.803-147.732-24.789-180h28.754c7.547 25.603 26.035 96.818 26.035 180zm-122-180h35.964c7.546 25.597 26.036 96.811 26.036 180 0 82.996-18.502 154.358-26.045 180h-35.955c-99.252 0-180-80.748-180-180s80.748-180 180-180z" fill="#90c65b" data-original="#000000" style="" class=""></path></g></g></svg>