<svg xmlns="http://www.w3.org/2000/svg" version="1.1" xmlns:xlink="http://www.w3.org/1999/xlink" xmlns:svgjs="http://svgjs.com/svgjs" width="512" height="512" x="0" y="0" viewBox="0 0 512.03 512.03" style="enable-background:new 0 0 512 512" xml:space="preserve" class=""><g><path xmlns="http://www.w3.org/2000/svg" d="m168.047 293.955h30v70.055h-30z" transform="matrix(.707 -.707 .707 .707 -179.013 225.791)" fill="#90C65B" data-original="#000000" style="" class=""></path><path xmlns="http://www.w3.org/2000/svg" d="m107.043 256.393-50.195 99.733-56.848 56.847 99.057 99.057 56.848-56.847 99.732-50.195 54.774-54.774-148.594-148.595zm-64.616 156.58 26.734-26.734 56.631 56.631-26.735 26.735zm195.41-32.612-87.892 44.236-62.512-62.511 44.236-87.894 30.147-30.146 106.167 106.168z" fill="#90C65B" data-original="#000000" style="" class=""></path><path xmlns="http://www.w3.org/2000/svg" d="m512.03 99.058-99.057-99.058-56.614 56.614-24.769-24.768-106.134 106.134 35.384 35.384-42.393 42.392 77.827 77.826 42.392-42.392 35.384 35.384 106.135-106.134-24.769-24.769zm-99.057-56.632 56.63 56.632-35.4 35.4-56.631-56.631zm-116.699 208.73-35.4-35.4 21.179-21.179 35.401 35.401zm-28.391-113.176 21.247-21.248 106.168 106.168-21.247 21.247zm148.627 63.707-106.167-106.168 21.247-21.247 106.168 106.168z" fill="#90C65B" data-original="#000000" style="" class=""></path></g></svg>