<svg id="euWrlVaoDyA1" xmlns="http://www.w3.org/2000/svg" xmlns:xlink="http://www.w3.org/1999/xlink" viewBox="0 0 223 234" shape-rendering="geometricPrecision" text-rendering="geometricPrecision"><path id="euWrlVaoDyA2" d="M209.89,240C209.89,179.18792,259.18793,129.89,320.00001,129.89C380.81209,129.89,430.11002,179.18793,430.11002,240.00001C430.11002,240.00002,209.89,240.00002,209.89002,240.00002L209.89,240Z" transform="matrix(-1 0 0 -0.771464 433.33358 334.129912)" fill="rgb(3,89,153)" stroke="none" stroke-width="0"/><path id="euWrlVaoDyA3" d="M209.89,240C209.89,179.18792,259.18793,129.89,320.00001,129.89C380.81209,129.89,430.11002,179.18793,430.11002,240.00001C430.11002,240.00002,209.89,240.00002,209.89002,240.00002L209.89,240Z" transform="matrix(1 0 0 0.771464 -206.66644 -100.205458)" fill="rgb(3,89,153)" stroke="none" stroke-width="0"/><rect id="euWrlVaoDyA4" width="220.22" height="36.877946" rx="2.34" ry="2.34" transform="matrix(1.014638 0 0 1 0 98.376109)" fill="rgb(3,89,153)" stroke="none" stroke-width="0"/></svg>